<svg width="36" height="36" viewBox="0 0 36 36" fill="none" xmlns="http://www.w3.org/2000/svg">
<path d="M17.9999 0C22.9707 0 27.471 2.01471 30.7283 5.2722C34.0806 8.62396 36 13.2722 36 17.9998C36 22.9707 33.9858 27.4703 30.7283 30.7276C27.471 33.9849 22.9707 36 17.9999 36C13.0297 36 8.52939 33.9849 5.272 30.7276C2.0146 27.4703 0 22.9707 0 17.9998C0 8.08225 8.08414 0 17.9999 0ZM15.5361 34.5984C15.9296 33.623 16.1368 32.4978 16.2061 31.3629C16.297 29.8694 16.149 28.3685 15.8711 27.1652C15.6007 25.9935 14.7402 25.09 13.5787 24.2794C10.2549 26.544 5.70273 26.3106 2.54235 24.5361C3.39129 26.542 4.61916 28.3472 6.13615 29.8641C8.62345 32.3518 11.8889 34.0618 15.5362 34.5984H15.5361ZM1.84059 22.5305C4.87601 24.7293 9.08983 25.4357 12.4096 23.5403C11.8084 23.1906 11.164 22.8482 10.5028 22.4969C7.70736 21.0122 3.42859 18.7029 1.55119 14.6739C1.33513 15.7491 1.22167 16.8612 1.22167 17.9998C1.22167 19.5701 1.43697 21.0894 1.84052 22.5305H1.84059ZM2.11472 12.5851C2.50712 15.3411 5.83766 18.1579 7.55123 19.3365C7.96896 18.7298 8.34217 17.6645 8.52196 16.3422C8.69838 15.0501 8.67981 13.5388 8.32958 11.995C7.12972 10.6058 6.06287 9.00239 5.36902 6.95568C3.94333 8.58474 2.82776 10.4917 2.11465 12.5851L2.11472 12.5851ZM6.35337 5.92235C7.39717 9.5783 9.76118 11.8207 11.9783 13.923C12.5258 14.4423 13.0645 14.9536 13.5763 15.4766C13.943 11.6966 12.5918 6.02728 9.68769 3.42214C8.4727 4.1164 7.35355 4.95783 6.35337 5.92235ZM10.8144 2.83447C14.0841 6.18175 15.457 12.1859 14.6717 16.6796C15.3686 17.5155 15.9701 18.4121 16.4107 19.4386C17.1163 21.0859 17.6808 23.1168 17.9831 25.6508C17.9889 25.5476 17.9945 25.4454 18.0006 25.3442C18.1647 22.6659 18.5174 20.545 19.0502 18.8415C19.4592 15.0413 18.5882 13.418 17.7625 11.8812C16.9027 10.2799 15.1091 6.24512 16.3292 1.30401C14.3722 1.49722 12.515 2.02648 10.8144 2.8344V2.83447ZM17.4645 1.22998C16.3375 5.62717 18.0894 9.8529 18.8616 11.2903C19.4634 12.4106 20.088 13.5731 20.3155 15.43C22.0295 12.075 22.818 5.31878 21.1186 1.51078C20.108 1.32087 19.066 1.22131 17.9999 1.22131C17.821 1.22131 17.6425 1.22454 17.4644 1.22998H17.4645ZM22.39 1.80141C23.5222 4.92129 23.3178 9.21149 22.9426 11.1263C23.909 10.6369 25.1612 9.72733 26.3029 8.67653C27.4992 7.57425 28.5467 6.33959 28.9733 5.30633C27.0962 3.68292 24.8554 2.46808 22.39 1.80141ZM29.927 6.19909C29.3468 7.31802 28.3063 8.52811 27.1477 9.5944C25.5927 11.0262 23.7865 12.2306 22.5872 12.6178C22.1817 14.0777 21.64 15.4699 21.1417 16.7481C20.8107 17.5992 20.4998 18.3973 20.2611 19.1496H20.2588C19.747 20.7616 19.4063 22.8035 19.2467 25.4174C19.2177 25.886 19.1948 26.3722 19.1777 26.8771C19.2758 26.46 19.3914 26.0764 19.5258 25.737L19.44 25.7024C20.6249 22.7966 21.7439 20.176 23.7448 18.006C23.9564 17.7766 24.1776 17.5529 24.4091 17.335C26.3599 15.3189 28.1923 13.2722 29.5177 11.2022C30.271 10.0248 30.8596 8.84104 31.2092 7.65262C30.8097 7.14352 30.3818 6.65844 29.927 6.19909ZM32.1015 8.90317C31.7179 9.90533 31.1954 10.8959 30.5681 11.8761C29.9705 12.8092 29.2779 13.7341 28.5218 14.6504C29.7754 14.0941 32.133 13.1694 33.9372 12.7392C33.487 11.375 32.8668 10.0879 32.1015 8.90317ZM34.2836 13.9379C30.0516 14.8719 26.4695 16.8923 24.6633 18.8508C23.4766 20.1378 22.6104 21.6318 21.842 23.2735C23.1143 22.4858 24.4539 22.1009 25.8243 21.707C28.0645 21.0635 32.7992 18.9887 34.6071 15.5897C34.5266 15.0297 34.4178 14.4788 34.2836 13.9379ZM34.7755 17.665C32.8377 20.1542 29.3532 21.9062 27.674 22.4554C28.3391 22.6189 28.9734 22.8326 29.5783 23.0826C30.9281 23.641 32.1259 24.3749 33.1975 25.1195C34.2121 22.9588 34.7787 20.5457 34.7787 17.9998C34.7787 17.8882 34.7776 17.7761 34.7755 17.6651V17.665ZM32.6207 26.2378C31.5743 25.5025 30.4067 24.7739 29.1044 24.2359C27.7851 23.6904 26.318 23.3349 24.6823 23.3582C23.4181 23.7811 22.211 24.3426 21.1289 25.4252L21.1281 25.4235C20.6076 25.9498 20.2697 27.2762 20.1145 28.9317C19.9515 30.672 20.0094 32.7321 20.2834 34.6239C24.0038 34.1179 27.3361 32.393 29.865 29.8641C30.9389 28.79 31.8684 27.5704 32.6206 26.2378H32.6207ZM9.75829 16.5082C9.55717 17.983 9.1148 19.2244 8.59799 20.0094C9.42003 20.506 10.2668 20.9561 11.0894 21.3931C13.5566 22.7033 15.8159 23.904 16.759 25.9306C16.4765 23.4625 15.9378 21.5025 15.2628 19.9276C14.417 17.9555 12.8106 16.4319 11.1185 14.8268C10.6914 14.4222 10.2598 14.0121 9.83157 13.5886C9.91703 14.624 9.88049 15.614 9.75822 16.5082H9.75829Z" fill="white"/>
</svg>
